<?xml version="1.0" encoding="utf-8"?>
<!-- Generator: Adobe Illustrator 22.1.0, SVG Export Plug-In . SVG Version: 6.00 Build 0)  -->
<svg version="1.1" id="圖層_1" xmlns="http://www.w3.org/2000/svg" xmlns:xlink="http://www.w3.org/1999/xlink" x="0px" y="0px"
	 viewBox="0 0 16 16" style="enable-background:new 0 0 16 16;" xml:space="preserve">
<path d="M13,0c1.1,0,2,0.9,2,2v12c0,1.1-0.9,2-2,2H3c-1.1,0-2-0.9-2-2V2c0-1.1,0.9-2,2-2H13z M14,8.5H2V14c0,0.6,0.4,1,1,1h10
	c0.6,0,1-0.4,1-1V8.5z M14,7.5V2c0-0.6-0.4-1-1-1H3C2.4,1,2,1.4,2,2v5.5H14z"/>
</svg>
