<?xml version="1.0" encoding="utf-8"?>
<!-- Generator: Adobe Illustrator 22.1.0, SVG Export Plug-In . SVG Version: 6.00 Build 0)  -->
<svg version="1.1" id="圖層_1" xmlns="http://www.w3.org/2000/svg" xmlns:xlink="http://www.w3.org/1999/xlink" x="0px" y="0px"
	 viewBox="0 0 16 16" style="enable-background:new 0 0 16 16;" xml:space="preserve">
<path d="M14.5,0C15.3,0,16,0.7,16,1.5v13c0,0.8-0.7,1.5-1.5,1.5h-13C0.7,16,0,15.3,0,14.5l0,0v-13C0,0.7,0.7,0,1.5,0l0,0H14.5z
	 M15,1.5C15,1.2,14.8,1,14.5,1h-13C1.2,1,1,1.2,1,1.5V5h14V1.5z M1,10h14V6H1V10z M1,11v3.5C1,14.8,1.2,15,1.5,15h13
	c0.3,0,0.5-0.2,0.5-0.5V11H1z"/>
</svg>
